<?xml version="1.0" encoding="iso-8859-1"?>
<!-- Uploaded to: SVG Repo, www.svgrepo.com, Generator: SVG Repo Mixer Tools -->
<!DOCTYPE svg PUBLIC "-//W3C//DTD SVG 1.1//EN" "http://www.w3.org/Graphics/SVG/1.1/DTD/svg11.dtd">
<svg fill="#000000" version="1.1" id="Capa_1" xmlns="http://www.w3.org/2000/svg" xmlns:xlink="http://www.w3.org/1999/xlink" 
	 width="800px" height="800px" viewBox="0 0 61.708 61.708"
	 xml:space="preserve">
<g>
	<g>
		<path d="M16.703,38.046c4.223,0,7.166-5.591,7.166-10.608c0-5.068-2.946-8.607-7.166-8.607c-4.22,0-7.167,3.539-7.167,8.607
			C9.536,32.456,12.479,38.046,16.703,38.046z M16.703,19.831c3.631,0,6.166,3.128,6.166,7.607c0,5.028-2.938,9.608-6.166,9.608
			s-6.167-4.58-6.167-9.608C10.536,22.959,13.072,19.831,16.703,19.831z"/>
		<path d="M16.702,39.082c-6.524,0-11.833,6.355-11.833,14.167c0,1.651,0.249,3.298,0.739,4.894l0.05,0.164l0.142,0.1
			c3.053,2.129,6.925,3.302,10.902,3.302c3.979,0,7.851-1.173,10.903-3.302l0.142-0.1l0.05-0.164
			c0.49-1.596,0.739-3.242,0.739-4.894C28.536,45.438,23.227,39.082,16.702,39.082z M26.891,57.682
			c-2.864,1.951-6.476,3.024-10.189,3.024c-3.713,0-7.324-1.073-10.188-3.024c-0.428-1.447-0.645-2.938-0.645-4.434
			c0-7.262,4.859-13.167,10.833-13.167c5.974,0,10.834,5.905,10.834,13.167C27.536,54.744,27.319,56.234,26.891,57.682z"/>
		<path d="M45.006,18.831c-4.22,0-7.167,3.539-7.167,8.607c0,5.018,2.942,10.608,7.167,10.608c4.223,0,7.166-5.591,7.166-10.608
			C52.172,22.37,49.227,18.831,45.006,18.831z M45.006,37.046c-3.229,0-6.167-4.58-6.167-9.608c0-4.479,2.536-7.607,6.167-7.607
			s6.166,3.128,6.166,7.607C51.172,32.466,48.234,37.046,45.006,37.046z"/>
		<path d="M45.005,39.082c-6.524,0-11.833,6.355-11.833,14.167c0,1.651,0.249,3.298,0.739,4.894l0.05,0.164l0.143,0.1
			c3.053,2.129,6.924,3.302,10.901,3.302c3.979,0,7.851-1.173,10.903-3.302l0.142-0.1l0.05-0.164
			c0.49-1.596,0.739-3.242,0.739-4.894C56.839,45.438,51.531,39.082,45.005,39.082z M55.195,57.682
			c-2.864,1.951-6.477,3.024-10.189,3.024s-7.324-1.073-10.188-3.024c-0.428-1.447-0.646-2.938-0.646-4.434
			c0-7.262,4.858-13.167,10.833-13.167S55.84,45.986,55.84,53.248C55.839,54.744,55.623,56.234,55.195,57.682z"/>
		<path d="M45.505,0H20.089v16.167h5.348l1.811,2.763l0.421-0.619c0,0,0.733-1.076,1.429-2.144h16.408L45.505,0L45.505,0z
			 M44.505,15.167H28.553l-0.147,0.229c-0.401,0.621-0.836,1.271-1.145,1.731l-1.283-1.96h-4.889V1h23.416V15.167z"/>
		<path d="M33.102,9.748c1.238,0,2.248-1.009,2.248-2.248c0-1.239-1.01-2.248-2.248-2.248c-1.24,0-2.249,1.008-2.249,2.248
			C30.853,8.74,31.862,9.748,33.102,9.748z M33.102,6.252c0.688,0,1.248,0.56,1.248,1.248s-0.561,1.248-1.248,1.248
			c-0.688,0-1.249-0.56-1.249-1.248S32.413,6.252,33.102,6.252z"/>
		<path d="M37.771,9.748c1.239,0,2.248-1.009,2.248-2.248c0-1.239-1.009-2.248-2.248-2.248c-1.238,0-2.248,1.009-2.248,2.248
			C35.523,8.739,36.533,9.748,37.771,9.748z M37.771,6.252c0.688,0,1.248,0.56,1.248,1.248s-0.56,1.248-1.248,1.248
			c-0.688,0-1.248-0.56-1.248-1.248S37.084,6.252,37.771,6.252z"/>
		<path d="M28.431,9.748c1.239,0,2.248-1.009,2.248-2.248c0-1.239-1.009-2.248-2.248-2.248c-1.239,0-2.248,1.008-2.248,2.248
			C26.183,8.74,27.192,9.748,28.431,9.748z M28.431,6.252c0.688,0,1.248,0.56,1.248,1.248s-0.56,1.248-1.248,1.248
			c-0.688,0-1.248-0.56-1.248-1.248S27.743,6.252,28.431,6.252z"/>
	</g>
</g>
</svg>